# xmcd CD database file
#
# Track frame offsets:
#	150
#	15243
#	37150
#	55331
#	73774
#	88716
#	107608
#	128992
#	147147
#	166515
#	185107
#	211338
#
# Disc length: 2980 seconds
#
# Revision: 0
# Processed by: cddbd v1.5.2PL0 Copyright (c) Steve Scherf et al.
# Submitted via: CDex 1.51
#
DISCID=a50ba20c
DTITLE=John Mayer - Continuum
DYEAR=2006
DGENRE=Blues
TTITLE0=waiting on the world to change
TTITLE1=i dont trust myself (with loving you)
TTITLE2=belief
TTITLE3=gravity
TTITLE4=the heart of life
TTITLE5=vultures
TTITLE6=stop this train
TTITLE7=slow dancing in a burning room
TTITLE8=bold as love
TTITLE9=dreaming with a broken heart
TTITLE10=in repair
TTITLE11=i'm gonna find another you
EXTD=YEAR: 2006
EXTT0=
EXTT1=
EXTT2=
EXTT3=
EXTT4=
EXTT5=
EXTT6=
EXTT7=
EXTT8=
EXTT9=
EXTT10=
EXTT11=
PLAYORDER=
